<?xml version="1.0" encoding="UTF-8" standalone="no"?>
<svg
   data-name="Layer 1"
   width="276.16629"
   height="473.40576"
   viewBox="0 0 276.16628 473.40576"
   
   xmlns="http://www.w3.org/2000/svg"
   >
  
  
  <path
     d="m 215.56045,42.596691 c -1.65466,-12.13655 -3.72987,-25.16694 -12.28987,-33.9280802 a 28.78566,28.78566 0 0 0 -41.59054,0.43047 c -6.23108,6.6473502 -8.98285,15.9812802 -9.23469,25.0890002 -0.25184,9.10772 1.77661,18.11434 4.02681,26.94334 a 83.04327,83.04327 0 0 0 34.65826,-6.82181 55.84219,55.84219 0 0 1 8.30984,-3.26239 c 2.88751,-0.73493 4.94581,1.11445 7.63182,2.404 l 1.47445,-2.82319 c 1.207,2.24618 4.94435,1.58037 6.3,-0.57936 1.35541,-2.15964 1.05847,-4.92551 0.71392,-7.45198 z"
     fill="#2f2e41"
     id="path2" />
  <path
     d="m 165.82321,93.840801 3.44812,-17.61353 -25.85334,-11.19245 -46.21928,-22.143 a 10.27075,10.27075 0 1 0 -7.44548,11.5 l 44.00766,27.15851 z"
     fill="#ffb8b8"
     id="path4" />
  <path
     d="m 148.4682,90.860731 18.725,-19.1418 0.37023,0.11261 c 0.23288,0.0705 23.49781,7.16307 38.32927,14.37044 a 12.63351,12.63351 0 0 1 6.96921,8.03865 13.2503,13.2503 0 0 1 -4.15554,13.920139 14.17281,14.17281 0 0 1 -15.15882,2.41334 z"
     fill="#f14660"
     id="path6" />
  <polygon
     points="510.971,139.346 462.642,124.387 447.684,175.017 500.338,189.087 "
     fill="#ffb8b8"
     id="polygon8"
     transform="translate(-299.27368,7.0754023e-5)" />
  <path
     d="m 206.95789,161.51626 -51.4362,-11.82883 -9.84969,-23.87251 a 18.26275,18.26275 0 0 1 6.58613,-18.61415 l 18.79293,-15.866129 10.07455,-12.86951 -1.09686,-6.82015 a 5.9078,5.9078 0 0 1 3.93786,-6.4325 l 13.42683,-4.815 a 6.2481,6.2481 0 0 1 7.88115,3.27734 l 1.42276,3.29287 c 0,0 6.07151,2.85713 9.4948,4.46428 a 13.74125,13.74125 0 0 1 7.43067,8.41824 69.65979,69.65979 0 0 1 -3.9496,51.151799 z"
     fill="#f14660"
     id="path10" />
  <circle
     cx="71.099701"
     cy="107.64033"
     r="71.099693"
     fill="#b4b4b5"
     id="circle36" />
  <path
     d="M 71.09966,168.8906 A 71.09,71.09 0 0 1 0.19489,102.79566 C 0.07964,104.45089 0,106.11595 0,107.80054 a 71.09968,71.09968 0 0 0 142.19935,0 c 0,-1.68459 -0.0796,-3.34965 -0.19489,-5.00488 a 71.09005,71.09005 0 0 1 -70.9048,66.09494 z"
     fill="#231f20"
     opacity="0.16"
     id="path38" />
  <path
     d="m 71.09989,142.38522 a 8.91461,8.91461 0 0 1 -8.9043,-8.9043 V 81.959921 a 8.90406,8.90406 0 1 1 17.80811,0 v 51.520999 a 8.9142,8.9142 0 0 1 -8.90381,8.9043 z"
     fill="#ffffff"
     id="path40" />
  <path
     d="m 36.43489,107.72067 a 8.91461,8.91461 0 0 1 8.90429,-8.904299 h 51.521 a 8.90406,8.90406 0 1 1 0,17.808109 h -51.521 a 8.91419,8.91419 0 0 1 -8.90429,-8.90381 z"
     fill="#ffffff"
     id="path42" />
  <path
     d="m 177.98015,122.82817 -15.12956,-9.65517 -19.87785,19.9634 -37.52231,34.90863 a 10.27075,10.27075 0 1 0 7.97721,11.13774 l 41.38042,-31.01485 z"
     fill="#ffb8b8"
     id="path44" />
  <path
     d="m 168.85538,137.8883 -10.96069,-24.43112 0.24,-0.30343 c 0.151,-0.19052 15.2663,-19.246289 27.40134,-30.410719 a 12.63381,12.63381 0 0 1 10.03145,-3.54358 13.25745,13.25745 0 0 1 11.43348,8.9617 14.1712,14.1712 0 0 1 -3.30149,14.989259 z"
     fill="#f14660"
     id="path46" />
  <circle
     cx="178.7579"
     cy="33.800312"
     r="23.785669"
     fill="#ffb8b8"
     id="circle48" />
  <polygon
     points="426.564,418.442 441.077,418.442 441.077,456.369 431.244,456.369 "
     fill="#ffb8b8"
     id="polygon50"
     transform="translate(-299.27368,7.0754023e-5)" />
  <path
     d="m 146.99297,473.40577 h -7.05162 l -1.25869,-6.65757 -3.22367,6.65757 h -18.70258 a 4.20417,4.20417 0 0 1 -2.389,-7.66381 l 14.93533,-10.31487 v -6.73057 l 15.70936,0.93763 z"
     fill="#2f2e41"
     id="path52" />
  <polygon
     points="536.806,418.145 550.29,412.777 564.317,448.015 555.181,451.652 "
     fill="#ffb8b8"
     id="polygon54"
     transform="translate(-299.27368,7.0754023e-5)" />
  <path
     d="m 276.16628,461.92468 -6.55162,2.608 -3.63169,-5.72 -0.53284,7.37776 -17.37645,6.917 a 4.20417,4.20417 0 0 1 -5.054,-6.23686 l 10.06143,-15.10722 -2.48926,-6.25334 14.94226,-4.93885 z"
     fill="#2f2e41"
     id="path56" />
  <path
     d="m 145.59626,438.94583 h -20.33965 l 5.62123,-95.55913 -4.10943,-64.77159 0.009,-0.0519 15.32642,-92.84731 a 39.21218,39.21218 0 0 1 9.39572,-19.69433 l 0.18658,-0.21025 51.29147,12.66779 5.15705,11.759 c 17.60912,10.47337 23.17029,69.53271 23.39874,72.04843 l 7.45523,73.62394 18.23624,90.2337 -12.84255,6.91459 -0.2148,-0.42778 -40.54277,-80.61954 -25.6041,-85.0184 -16.39677,76.51829 z"
     fill="#2f2e41"
     id="path58" />
  <path
     d="m 208.21506,34.919681 c -0.84171,-5.52877 -1.7208,-11.10385 -3.69814,-16.30974 -1.97734,-5.20589 -5.16459,-10.0820002 -9.73665,-13.0310702 -7.23909,-4.66912005 -16.61147,-3.76861 -24.72769,-1.08281 -6.27661,2.07709 -12.40368,5.23408 -16.82988,10.3094602 -4.42645,5.07543 -6.91245,12.31749 -5.26594,18.95377 q 12.98639,-3.06819 25.97253,-6.13643 l -0.94771,0.66968 a 20.91064,20.91064 0 0 1 11.15982,14.54438 21.66552,21.66552 0 0 1 -4.57058,17.99384 q 8.85671,-3.14187 17.71341,-6.28364 c 3.64451,-1.29283 7.54507,-2.78248 9.70615,-6.09858 2.50568,-3.84469 1.92351,-8.94062 1.22468,-13.52886 z"
     fill="#2f2e41"
     id="path60" />
</svg>
